<?xml version="1.0" encoding="iso-8859-1"?>
<!-- Generator: Adobe Illustrator 16.0.0, SVG Export Plug-In . SVG Version: 6.00 Build 0)  -->
<!DOCTYPE svg PUBLIC "-//W3C//DTD SVG 1.1//EN" "http://www.w3.org/Graphics/SVG/1.1/DTD/svg11.dtd">
<svg version="1.1" id="Capa_1" xmlns="http://www.w3.org/2000/svg" xmlns:xlink="http://www.w3.org/1999/xlink" x="0px" y="0px"
	 width="218.235px" height="218.235px" viewBox="0 0 218.235 218.235" style="enable-background:new 0 0 218.235 218.235;"
	 xml:space="preserve">
<g>
	<g>
		<path d="M110.875,84.441c2.219,0,4.34-0.83,5.968-2.336c1.728-1.594,2.731-3.766,2.825-6.118c0.095-2.352-0.732-4.598-2.33-6.328
			c-1.665-1.798-4.025-2.829-6.474-2.829c-2.22,0-4.339,0.829-5.969,2.333c-1.732,1.597-2.737,3.773-2.83,6.126
			c-0.093,2.351,0.736,4.595,2.333,6.32C106.064,83.409,108.426,84.441,110.875,84.441z M109.474,74.125
			c0.38-0.35,0.874-0.544,1.392-0.544c0.584,0,1.124,0.236,1.518,0.662c0.371,0.401,0.563,0.925,0.541,1.474
			c-0.021,0.549-0.256,1.057-0.66,1.43c-0.485,0.45-1.022,0.544-1.388,0.544c-0.584,0-1.125-0.236-1.523-0.667
			c-0.37-0.4-0.563-0.922-0.541-1.468C108.833,75.007,109.068,74.499,109.474,74.125z"/>
		<path d="M56.167,77.819c-5.447,0-9.878,4.428-9.878,9.872c0,5.444,4.431,9.873,9.878,9.873c5.444,0,9.873-4.429,9.873-9.873
			C66.042,82.248,61.612,77.819,56.167,77.819z M56.167,90.813c-1.724,0-3.128-1.401-3.128-3.123c0-1.721,1.403-3.122,3.128-3.122
			c1.722,0,3.123,1.401,3.123,3.122C59.292,89.413,57.891,90.813,56.167,90.813z"/>
		<path d="M218.141,147.356c-0.203-0.951-1.071-3.161-4.763-3.161h-8.238c-1.863,0-3.375,1.511-3.375,3.375
			c0,1.863,1.512,3.375,3.375,3.375h0.109c-7.46,4.101-19.828,10.072-31.117,15.13h-14.067c-1.863,0-3.375,1.511-3.375,3.375
			s1.512,3.375,3.375,3.375h7.717l-3.776,4.949h-110.3l-3.435-4.949h88.944c1.864,0,3.375-1.511,3.375-3.375
			s-1.511-3.375-3.375-3.375h-95.37c-11.226-5.057-23.526-11.031-30.93-15.13h175.464c1.864,0,3.375-1.512,3.375-3.375
			c0-1.864-1.511-3.375-3.375-3.375H4.865c-3.693,0-4.565,2.21-4.769,3.161c-0.638,2.979,1.914,5.059,7.512,8.329
			c3.334,1.948,8.01,4.409,13.898,7.313c9.958,4.912,20.132,9.484,20.233,9.53c0.05,0.021,0.101,0.039,0.152,0.059l7.278,10.486
			c0.631,0.909,1.666,1.451,2.772,1.451h113.736c1.052,0,2.045-0.491,2.684-1.328l8.274-10.848
			c1.99-0.894,11.055-4.988,19.956-9.353c5.925-2.905,10.63-5.365,13.986-7.313C216.208,152.416,218.776,150.336,218.141,147.356z"
			/>
		<path d="M70.433,135.634c0.643,0.653,1.513,1.009,2.407,1.009c0.279,0,0.559-0.033,0.836-0.104
			c1.165-0.298,2.083-1.193,2.411-2.349l6.725-23.711L93.61,139.95c0.41,1.12,1.38,1.939,2.553,2.158
			c0.206,0.037,0.412,0.057,0.617,0.057c0.964,0,1.893-0.413,2.54-1.153l22.939-26.227l1.838,22.048
			c0.103,1.225,0.862,2.298,1.984,2.8c0.441,0.198,0.912,0.295,1.379,0.295c0.72,0,1.435-0.229,2.03-0.679l21.05-15.853
			l54.29-40.875c0.93-0.7,1.433-1.829,1.332-2.988s-0.79-2.185-1.826-2.714l-83.625-42.74c-1.091-0.558-2.398-0.48-3.415,0.202
			c-1.018,0.682-1.585,1.862-1.484,3.084l1.115,13.389l-16.174-3.688c0.134-1.035-0.216-2.085-0.971-2.833
			c-0.872-0.863-2.145-1.186-3.323-0.84l-85.124,25.02c-1.138,0.334-2.017,1.242-2.315,2.389c-0.298,1.148,0.028,2.368,0.859,3.214
			L70.433,135.634z M164.807,99.63c-2.133,0-3.869-1.734-3.869-3.865c0-2.134,1.736-3.871,3.869-3.871
			c2.131,0,3.865,1.737,3.865,3.871C168.672,97.896,166.938,99.63,164.807,99.63z M173.858,73.792c1.132,0,2.054,0.922,2.054,2.055
			c0,1.135-0.921,2.057-2.054,2.057c-1.136,0-2.059-0.923-2.059-2.057C171.8,74.714,172.723,73.792,173.858,73.792z M165.176,64.387
			l6.007,3.07c-3.553,1.134-6.133,4.467-6.133,8.39c0,4.856,3.951,8.807,8.809,8.807c4.854,0,8.804-3.951,8.804-8.807
			c0-0.959-0.154-1.883-0.439-2.747l14.239,7.277l-21.049,15.848c0.007-0.152,0.01-0.305,0.01-0.459
			c0-5.857-4.762-10.621-10.615-10.621c-5.855,0-10.619,4.765-10.619,10.621c0,4.995,3.471,9.195,8.126,10.32l-31.996,24.093
			l-1.874-22.464l35.903-41.049C164.906,66.028,165.189,65.211,165.176,64.387z M152.853,58.089l-29.092-6.631l-0.717-8.605
			L152.853,58.089z M139.862,68.032c0,2.605-2.12,4.725-4.726,4.725s-4.725-2.12-4.725-4.725s2.119-4.725,4.725-4.725
			S139.862,65.426,139.862,68.032z M99.124,53.619l27.857,6.349c-2.05,2.074-3.319,4.923-3.319,8.063
			c0,6.327,5.147,11.475,11.475,11.475s11.476-5.148,11.476-11.475c0-1.306-0.223-2.56-0.626-3.731l9.328,2.126L97.99,132.279
			L86.054,99.704L99.124,53.619z M41.544,71.569c0.824,0,1.494,0.672,1.494,1.498c0,0.827-0.67,1.501-1.494,1.501
			c-0.827,0-1.5-0.673-1.5-1.501C40.044,72.241,40.718,71.569,41.544,71.569z M34.605,68.609c-0.83,1.286-1.311,2.817-1.311,4.458
			c0,4.55,3.701,8.251,8.25,8.251c4.546,0,8.245-3.701,8.245-8.251c0-3.327-1.979-6.2-4.822-7.503L92.5,51.591l-21.323,75.171
			l-52.536-53.46L34.605,68.609z"/>
	</g>
</g>
<g>
</g>
<g>
</g>
<g>
</g>
<g>
</g>
<g>
</g>
<g>
</g>
<g>
</g>
<g>
</g>
<g>
</g>
<g>
</g>
<g>
</g>
<g>
</g>
<g>
</g>
<g>
</g>
<g>
</g>
</svg>
